<?xml version="1.0" encoding="UTF-8"?>
<svg width="16px" height="16px" viewBox="0 0 16 16" version="1.1" xmlns="http://www.w3.org/2000/svg" xmlns:xlink="http://www.w3.org/1999/xlink">
    <!-- Generator: Sketch 52.6 (67491) - http://www.bohemiancoding.com/sketch -->
    <title>Icon</title>
    <desc>Created with Sketch.</desc>
    <g id="Symbols" stroke="none" stroke-width="1" fill="none" fill-rule="evenodd">
        <g id="Header-1" transform="translate(-1260.000000, -91.000000)" fill="#FFFFFF">
            <g id="Group-28">
                <path d="M1271.44968,101.199234 L1276,105.749555 L1274.74955,107 L1270.19923,102.449679 C1269.13297,103.254927 1267.80536,103.732454 1266.36623,103.732454 C1262.85026,103.732454 1260,100.882197 1260,97.366227 C1260,93.8502569 1262.85026,91 1266.36623,91 C1269.8822,91 1272.73245,93.8502569 1272.73245,97.366227 C1272.73245,98.8053642 1272.25493,100.132969 1271.44968,101.199234 Z M1266.36623,101.964058 C1268.90554,101.964058 1270.96406,99.9055387 1270.96406,97.366227 C1270.96406,94.8269153 1268.90554,92.7683964 1266.36623,92.7683964 C1263.82692,92.7683964 1261.7684,94.8269153 1261.7684,97.366227 C1261.7684,99.9055387 1263.82692,101.964058 1266.36623,101.964058 Z" id="Icon"></path>
            </g>
        </g>
    </g>
</svg>