<?xml version="1.0" encoding="UTF-8"?>
<svg width="22px" height="22px" viewBox="0 0 22 22" version="1.1" xmlns="http://www.w3.org/2000/svg" xmlns:xlink="http://www.w3.org/1999/xlink">
    <!-- Generator: Sketch 52.6 (67491) - http://www.bohemiancoding.com/sketch -->
    <title>profile-picture</title>
    <desc>Created with Sketch.</desc>
    <g id="Symbols" stroke="none" stroke-width="1" fill="none" fill-rule="evenodd">
        <g id="Header-1" transform="translate(-1218.000000, -23.000000)" fill="#000000" fill-rule="nonzero">
            <g id="Group-28">
                <g id="profile-picture" transform="translate(1218.000000, 23.000000)">
                    <path d="M10.9643243,3.52 C8.83638611,3.52 7.11135135,5.29295239 7.11135135,7.48 C7.11135135,9.66704761 8.83638611,11.44 10.9643243,11.44 C13.0922625,11.44 14.8172973,9.66704761 14.8172973,7.48 C14.8172973,5.29295239 13.0922625,3.52 10.9643243,3.52 Z M10.9643243,10.56 C9.30926127,10.56 7.96756757,9.18103703 7.96756757,7.48 C7.96756757,5.77896297 9.30926127,4.4 10.9643243,4.4 C12.6193874,4.4 13.9610811,5.77896297 13.9610811,7.48 C13.9591937,9.18023289 12.618605,10.5580602 10.9643243,10.56 Z" id="Shape"></path>
                    <path d="M10.9643243,-2.65743009e-14 C6.35893491,-0.00431179526 2.26822051,3.02248254 0.811022678,7.51261342 C-0.646175159,12.0027443 0.857541515,16.9473853 4.54330205,19.785392 C8.34192111,22.7379227 13.5864707,22.7379227 17.3850897,19.785392 C17.6704951,19.5647467 17.9442845,19.330432 18.2064579,19.082448 C21.4543534,16.0173653 22.5382748,11.2173622 20.9359341,6.99532159 C19.3335935,2.77328098 15.3736979,-0.00468000809 10.9643243,-2.65743009e-14 Z M10.9643243,21.12 C8.6468803,21.1211681 6.40404961,20.2780432 4.63423222,18.740392 C5.13536022,15.547137 7.81726169,13.1997008 10.9643671,13.1997008 C14.1114726,13.1997008 16.7933741,15.547137 17.2945021,18.740392 C15.5246622,20.2780628 13.2817978,21.1211889 10.9643243,21.12 Z M18.0281081,18.034632 C17.240319,14.6814491 14.3206445,12.3190108 10.9643243,12.3190108 C7.60800415,12.3190108 4.6883296,14.6814491 3.90054054,18.034632 C0.138143615,14.0527118 0.198531254,7.69916074 4.03589569,3.79354148 C7.87326012,-0.112077771 14.0553885,-0.112077771 17.892753,3.79354148 C21.7301174,7.69916074 21.790505,14.0527118 18.0281081,18.034632 Z" id="Shape"></path>
                </g>
            </g>
        </g>
    </g>
</svg>