<?xml version="1.0" encoding="UTF-8"?>
<svg width="12px" height="17px" viewBox="0 0 12 17" version="1.1" xmlns="http://www.w3.org/2000/svg" xmlns:xlink="http://www.w3.org/1999/xlink">
    <!-- Generator: Sketch 52.6 (67491) - http://www.bohemiancoding.com/sketch -->
    <title>location-pin</title>
    <desc>Created with Sketch.</desc>
    <g id="Symbols" stroke="none" stroke-width="1" fill="none" fill-rule="evenodd">
        <g id="Header-1" transform="translate(-1072.000000, -16.000000)" fill="#671E75" fill-rule="nonzero" stroke="#671E75" stroke-width="0.5">
            <g id="Group-28">
                <g id="Group-9" transform="translate(864.000000, 13.000000)">
                    <g id="Group-29" transform="translate(209.000000, 0.000000)">
                        <g id="Group-31">
                            <g id="location-pin" transform="translate(0.000000, 4.000000)">
                                <g id="Group">
                                    <g id="Group-8">
                                        <path d="M5.1,-1.95399252e-13 C2.28334778,-1.949463e-13 -1.30953026e-12,2.28334778 -1.31006317e-12,5.1 C-1.31006317e-12,8.08608 2.98992,12.83802 4.39116,14.6505 C4.56063458,14.8707067 4.82268764,14.9998197 5.10055918,15.0000194 C5.37843072,15.0002191 5.64066909,14.8714829 5.81046,14.65152 C7.212,12.84378 10.2,8.10408 10.2,5.1 C10.2,3.7473959 9.66268011,2.45019095 8.70624458,1.49375542 C7.74980905,0.537319886 6.4526041,-1.95616768e-13 5.1,-1.95399252e-13 Z M5.33628,14.28384 C5.28025992,14.3571398 5.19327568,14.4001403 5.10102,14.4001403 C5.00876432,14.4001403 4.92178008,14.3571398 4.86576,14.28384 C3.474,12.48324 0.6,7.86972 0.6,5.1 C0.6,2.61471863 2.61471863,0.6 5.1,0.6 C7.58528137,0.6 9.6,2.61471863 9.6,5.1 C9.6,7.88496 6.72732,12.49002 5.33616,14.28384 L5.33628,14.28384 Z" id="Shape"></path>
                                        <path d="M5.1,3.4 C3.94020203,3.4 3,4.34020203 3,5.5 C3,6.65979797 3.94020203,7.6 5.1,7.6 C6.25979797,7.6 7.2,6.65979797 7.2,5.5 C7.2,4.94304537 6.97875064,4.40890215 6.58492424,4.01507576 C6.19109785,3.62124936 5.65695463,3.4 5.1,3.4 Z M5.1,7 C4.27157288,7 3.6,6.32842712 3.6,5.5 C3.6,4.67157288 4.27157288,4 5.1,4 C5.92842712,4 6.6,4.67157288 6.6,5.5 C6.59904115,6.32802963 5.92802963,6.99904115 5.1,7 Z" id="Shape"></path>
                                    </g>
                                </g>
                            </g>
                        </g>
                    </g>
                </g>
            </g>
        </g>
    </g>
</svg>