<?xml version="1.0" encoding="UTF-8"?>
<svg width="18px" height="24px" viewBox="0 0 18 24" version="1.1" xmlns="http://www.w3.org/2000/svg" xmlns:xlink="http://www.w3.org/1999/xlink">
    <!-- Generator: Sketch 52.6 (67491) - http://www.bohemiancoding.com/sketch -->
    <title>shopping-bag</title>
    <desc>Created with Sketch.</desc>
    <g id="Diseños" stroke="none" stroke-width="1" fill="none" fill-rule="evenodd">
        <g id="ui-muguerza-tienda-404" transform="translate(-1167.000000, -50.000000)" fill="#000000" fill-rule="nonzero">
            <g id="shopping-bag" transform="translate(1167.000000, 50.000000)">
                <path d="M16.4102483,4.754304 C16.3858527,4.24237025 15.963627,3.83988032 15.4511123,3.84 L12.5265684,3.84 C12.5265684,1.71922656 10.8073418,1.90621676e-15 8.68656835,1.77635684e-15 C6.56579491,1.64649692e-15 4.84656835,1.71922656 4.84656835,3.84 L1.82900035,3.84 C1.3165228,3.83993157 0.894354282,4.24240735 0.869960354,4.754304 L0.00135235471,22.994304 C-0.0111415467,23.256483 0.0842590763,23.5123442 0.265352097,23.7023423 C0.446445117,23.8923403 0.697435822,23.9999038 0.959912354,24 L16.3199123,24 C16.5824723,24.000035 16.8335889,23.892529 17.014787,23.7025159 C17.195985,23.5125029 17.2914502,23.2565663 17.2789523,22.994304 L16.4102483,4.754304 Z M8.68656835,0.96 C10.2764028,0.961798756 11.5647696,2.25016558 11.5665684,3.84 L5.80656835,3.84 C5.80836711,2.25016558 7.09673394,0.961798756 8.68656835,0.96 Z M1.82900035,4.8 L4.84656835,4.8 L4.84656835,8.16 C4.84656835,8.42509668 5.06147167,8.64 5.32656835,8.64 C5.59166503,8.64 5.80656835,8.42509668 5.80656835,8.16 L5.80656835,4.8 L11.5665684,4.8 L11.5665684,8.16 C11.5665684,8.42509668 11.7814717,8.64 12.0465684,8.64 C12.311665,8.64 12.5265684,8.42509668 12.5265684,8.16 L12.5265684,4.8 L15.4400723,4.8 L16.1345363,19.2 L1.14327235,19.2 L1.82900035,4.8 Z M0.959912354,23.04 L1.09709635,20.16 L16.1808083,20.16 L16.3199123,23.04 L0.959912354,23.04 Z" id="Shape"></path>
            </g>
        </g>
    </g>
</svg>