<?xml version="1.0" encoding="UTF-8"?>
<svg width="24px" height="24px" viewBox="0 0 24 24" version="1.1" xmlns="http://www.w3.org/2000/svg" xmlns:xlink="http://www.w3.org/1999/xlink">
    <!-- Generator: Sketch 52.6 (67491) - http://www.bohemiancoding.com/sketch -->
    <title>search</title>
    <desc>Created with Sketch.</desc>
    <g id="Diseños" stroke="none" stroke-width="1" fill="none" fill-rule="evenodd">
        <g id="ui-muguerza-tienda-404" transform="translate(-1028.000000, -50.000000)" fill="#000000" fill-rule="nonzero">
            <g id="search" transform="translate(1028.000000, 50.000000)">
                <path d="M16.849056,16.170048 C20.1698731,12.4813152 19.9470359,6.81836669 16.3466323,3.40198413 C12.7462286,-0.0143984214 7.07938452,0.0598976719 3.56978509,3.56949709 C0.0601856719,7.07909652 -0.0141104214,12.7459406 3.40227213,16.3463443 C6.81865469,19.9467479 12.4816032,20.1695851 16.170336,16.848768 L23.18064,23.85936 C23.3689819,24.0412667 23.6683607,24.0386651 23.8535129,23.8535129 C24.0386651,23.6683607 24.0412667,23.3689819 23.85936,23.18064 L16.849056,16.170048 Z M10.08,18.24 C5.57335644,18.24 1.92,14.5866436 1.92,10.08 C1.92,5.57335644 5.57335644,1.92 10.08,1.92 C14.5866436,1.92 18.24,5.57335644 18.24,10.08 C18.23471,14.5844505 14.5844505,18.23471 10.08,18.24 Z" id="Shape"></path>
            </g>
        </g>
    </g>
</svg>